# xmcd
#
# Track frame offsets: 
#        182
#        24010
#        35625
#        44615
#        58505
#        72462
#        85807
#        99257
#        112517
#        124492
#        140480
#        155445
#        183665
#
# Disc length: 2693 seconds
#
# Revision: 10
# Processed by: cddbd v1.5.2PL0 Copyright (c) Steve Scherf et al.
# Submitted via: ExactAudioCopy v1.0b6
#
DISCID=ab0a830d
DTITLE=The Jon Spencer Blues Explosion - Orange [1994 Matador CD]
DYEAR=1994
DGENRE=Rock
TTITLE0=Bellbottoms
TTITLE1=Ditch
TTITLE2=Dang
TTITLE3=Very Rare
TTITLE4=Sweat
TTITLE5=Cowboy
TTITLE6=Orange
TTITLE7=Brenda
TTITLE8=Dissect
TTITLE9=Blues X Man
TTITLE10=Full Grown
TTITLE11=Flavor
TTITLE12=Greyhound
EXTD=YEAR: 1994
EXTT0=
EXTT1=
EXTT2=
EXTT3=
EXTT4=
EXTT5=
EXTT6=
EXTT7=
EXTT8=
EXTT9=
EXTT10=
EXTT11=
EXTT12=
PLAYORDER=
